<svg width="1000" height="1000" viewBox="0 0 1000 1000" fill="none" xmlns="http://www.w3.org/2000/svg">
<path d="M699.334 255H561.542C553.832 255 546.809 259.431 543.49 266.39L320.844 733.168C318.913 737.217 313.04 736.871 311.597 732.624L153.933 268.566C151.177 260.455 143.562 255 134.996 255H28.8687C14.9022 255 5.23644 268.952 10.1441 282.028L227.364 860.785C231.025 870.539 240.351 877 250.77 877H359.938C368.864 877 377.113 872.241 381.581 864.514L716.648 285.011C724.357 271.678 714.735 255 699.334 255Z" fill="url(#paint0_linear_202_1704)"/>
<path d="M967.43 252H862.758C855.448 252 848.72 255.988 845.211 262.402L520.003 856.916C512.532 870.575 522.843 887.157 538.398 886.496L669.555 880.925C676.778 880.619 683.273 876.438 686.543 869.99L985.267 281.047C992.015 267.743 982.348 252 967.43 252Z" fill="url(#paint1_linear_202_1704)"/>
<defs>
<linearGradient id="paint0_linear_202_1704" x1="313.37" y1="255" x2="313.37" y2="877" gradientUnits="userSpaceOnUse">
<stop stop-color="#13D67F"/>
<stop offset="0.386491" stop-color="#0DAB64"/>
<stop offset="0.565056" stop-color="#08894F"/>
<stop offset="0.957076" stop-color="#08894F"/>
</linearGradient>
<linearGradient id="paint1_linear_202_1704" x1="657.806" y1="880.429" x2="930.812" y2="266.207" gradientUnits="userSpaceOnUse">
<stop stop-color="#13D67F"/>
<stop offset="1" stop-color="#08894F"/>
</linearGradient>
</defs>
</svg>
