<svg width="238" height="167" viewBox="0 0 238 167" fill="none" xmlns="http://www.w3.org/2000/svg">
<g clip-path="url(#clip0_202_1704)">
<path d="M150.205 0.779989L94.3151 165H56.3651L0.705078 0.779989H35.8951L66.7151 98.53C67.3284 100.217 68.1717 103.36 69.2451 107.96C70.4717 112.407 71.6984 117.16 72.9251 122.22C74.1517 127.127 74.9951 131.267 75.4551 134.64C75.9151 131.267 76.6817 127.127 77.7551 122.22C78.9817 117.16 80.2084 112.407 81.4351 107.96C82.6617 103.36 83.5051 100.217 83.9651 98.53L115.015 0.779989H150.205ZM57.8664 613L10.0264 487.42H45.9064L70.0564 558.95C70.9764 561.71 71.743 564.623 72.3564 567.69C73.123 570.757 73.6597 573.747 73.9664 576.66C74.4264 579.573 74.733 582.257 74.8864 584.71H75.8064C75.9597 582.103 76.2664 579.343 76.7264 576.43C77.1864 573.517 77.723 570.603 78.3364 567.69C79.103 564.623 79.9464 561.71 80.8664 558.95L105.016 487.42H140.896L93.0564 613H57.8664Z" fill="url(#paint0_linear_202_1704)"/>
<path d="M238 1H202.45L147 167H181.47L238 1Z" fill="url(#paint1_linear_202_1704)"/>
</g>
<defs>
<linearGradient id="paint0_linear_202_1704" x1="24" y1="75.5" x2="140" y2="-6.5" gradientUnits="userSpaceOnUse">
<stop stop-color="#00DC7A"/>
<stop offset="1" stop-color="#0C8951"/>
</linearGradient>
<linearGradient id="paint1_linear_202_1704" x1="156.411" y1="167" x2="233.416" y2="10.6187" gradientUnits="userSpaceOnUse">
<stop stop-color="#13D67F"/>
<stop offset="1" stop-color="#08894F"/>
</linearGradient>
<clipPath id="clip0_202_1704">
<rect width="238" height="167" fill="white"/>
</clipPath>
</defs>
</svg>
